<svg xmlns="http://www.w3.org/2000/svg" width="850" height="170" viewBox="0 0 850 170" font-family="-apple-system,'Segoe UI',Roboto,'Noto Sans SC','Microsoft YaHei',sans-serif">
  <defs>
    <marker id="ah" markerWidth="10" markerHeight="10" refX="7.5" refY="3" orient="auto">
      <path d="M0,0 L8,3 L0,6 Z" fill="#4a7dff"/>
    </marker>
  </defs>
  <rect x="0" y="0" width="850" height="170" fill="#ffffff"/>
  <g fill="#eef4ff" stroke="#4a7dff" stroke-width="2">
    <rect x="12" y="45" width="152" height="80" rx="12"/>
    <rect x="184" y="45" width="152" height="80" rx="12"/>
    <rect x="356" y="45" width="152" height="80" rx="12"/>
    <rect x="528" y="45" width="152" height="80" rx="12"/>
    <rect x="700" y="45" width="138" height="80" rx="12"/>
  </g>
  <g fill="#4a7dff" font-size="12" font-weight="700" text-anchor="middle">
    <text x="88" y="34">1</text>
    <text x="260" y="34">2</text>
    <text x="432" y="34">3</text>
    <text x="604" y="34">4</text>
    <text x="769" y="34">5</text>
  </g>
  <g fill="#1b2a4a" font-size="15" font-weight="600" text-anchor="middle">
    <text x="88" y="80">装 Docker</text>
    <text x="260" y="80">下载项目</text>
    <text x="432" y="80">改密码</text>
    <text x="604" y="80">启动</text>
    <text x="769" y="80">打开使用</text>
  </g>
  <g fill="#5a6b86" font-size="11.5" text-anchor="middle">
    <text x="88" y="102">Docker Desktop</text>
    <text x="260" y="102">git clone</text>
    <text x="432" y="102">amadeus.local.yml</text>
    <text x="604" y="102">docker compose up</text>
    <text x="769" y="102">127.0.0.1:3080</text>
  </g>
  <g stroke="#4a7dff" stroke-width="2.5" marker-end="url(#ah)" fill="none">
    <line x1="164" y1="85" x2="182" y2="85"/>
    <line x1="336" y1="85" x2="354" y2="85"/>
    <line x1="508" y1="85" x2="526" y2="85"/>
    <line x1="680" y1="85" x2="698" y2="85"/>
  </g>
</svg>
